<svg width="24" height="24" viewBox="0 0 24 24" fill="none" xmlns="http://www.w3.org/2000/svg">
<path fill-rule="evenodd" clip-rule="evenodd" d="M10.9 3C10.5 1.3 8.9 0 7 0C5.1 0 3.6 1.3 3.1 3H0V5H3.1C3.5 6.7 5.1 8 7 8C8.9 8 10.4 6.7 10.9 5H24V3H10.9ZM7 5C6.4 5 6 4.6 6 4C6 3.4 6.4 3 7 3C7.6 3 8 3.4 8 4C8 4.6 7.6 5 7 5Z" fill="#3D4146"/>
<path fill-rule="evenodd" clip-rule="evenodd" d="M17 8C15.1 8 13.6 9.3 13.1 11H0V13H13.1C13.5 14.7 15.1 16 17 16C18.9 16 20.4 14.7 20.9 13H24V11H20.9C20.4 9.3 18.9 8 17 8ZM17 13C16.4 13 16 12.6 16 12C16 11.4 16.4 11 17 11C17.6 11 18 11.4 18 12C18 12.6 17.6 13 17 13Z" fill="#3D4146"/>
<path fill-rule="evenodd" clip-rule="evenodd" d="M7 16C5.1 16 3.6 17.3 3.1 19H0V21H3.1C3.5 22.7 5.1 24 7 24C8.9 24 10.4 22.7 10.9 21H24V19H10.9C10.4 17.3 8.9 16 7 16ZM7 21C6.4 21 6 20.6 6 20C6 19.4 6.4 19 7 19C7.6 19 8 19.4 8 20C8 20.6 7.6 21 7 21Z" fill="#3D4146"/>
</svg>
