<svg width="45" height="45" viewBox="0 0 45 45" fill="none" xmlns="http://www.w3.org/2000/svg">
<path d="M19.4688 9C20.2187 9 20.8281 9.25 21.2969 9.75001C21.7656 10.25 22 10.9 22 11.7C22 12.3 21.5781 13.15 20.7344 14.25C19.9844 15.35 19.375 16.45 18.9063 17.55C18.4375 18.55 18.2031 19.95 18.2031 21.75V33.15C18.2031 33.95 17.9687 34.65 17.5 35.25C17.0313 35.75 16.4219 36 15.6719 36C14.9219 36 14.2656 35.75 13.7031 35.25C13.2344 34.65 13 33.95 13 33.15V21.6C13 19.3 13.4687 16.95 14.4062 14.55C15.3437 12.05 16.6562 10.3 18.3438 9.3C18.7188 9.1 19.0938 9 19.4688 9Z" fill="#3d4146"/>
<path d="M30.4688 9C31.2187 9 31.8281 9.25 32.2969 9.75001C32.7656 10.25 33 10.9 33 11.7C33 12.3 32.5781 13.15 31.7344 14.25C30.9844 15.35 30.375 16.45 29.9063 17.55C29.4375 18.55 29.2031 19.95 29.2031 21.75V33.15C29.2031 33.95 28.9687 34.65 28.5 35.25C28.0313 35.75 27.4219 36 26.6719 36C25.9219 36 25.2656 35.75 24.7031 35.25C24.2344 34.65 24 33.95 24 33.15V21.6C24 19.3 24.4687 16.95 25.4062 14.55C26.3437 12.05 27.6562 10.3 29.3438 9.3C29.7188 9.1 30.0938 9 30.4688 9Z" fill="#3d4146"/>
</svg>
