<svg width="70" height="70" viewBox="0 0 70 70" fill="none" xmlns="http://www.w3.org/2000/svg">
<path d="M27.9375 8C29.4375 8 30.6562 8.49075 31.5938 9.47224C32.5313 10.4537 33 11.7296 33 13.3C33 14.4778 32.1562 16.1463 30.4687 18.3056C28.9687 20.4648 27.75 22.6241 26.8125 24.7833C25.875 26.7463 25.4063 29.4944 25.4063 33.0278V55.4055C25.4063 56.9759 24.9375 58.35 24 59.5278C23.0625 60.5093 21.8438 61 20.3438 61C18.8438 61 17.5312 60.5093 16.4062 59.5278C15.4687 58.35 15 56.9759 15 55.4055V32.7333C15 28.2185 15.9375 23.6056 17.8125 18.8945C19.6875 13.987 22.3125 10.5519 25.6875 8.5889C26.4375 8.1963 27.1875 8 27.9375 8Z" fill="#3D4146"/>
<path d="M48.9375 8C50.4375 8 51.6562 8.49075 52.5938 9.47224C53.5313 10.4537 54 11.7296 54 13.3C54 14.4778 53.1562 16.1463 51.4687 18.3056C49.9687 20.4648 48.75 22.6241 47.8125 24.7833C46.875 26.7463 46.4063 29.4944 46.4063 33.0278V55.4055C46.4063 56.9759 45.9375 58.35 45 59.5278C44.0625 60.5093 42.8438 61 41.3438 61C39.8438 61 38.5312 60.5093 37.4062 59.5278C36.4687 58.35 36 56.9759 36 55.4055V32.7333C36 28.2185 36.9375 23.6056 38.8125 18.8945C40.6875 13.987 43.3125 10.5519 46.6875 8.5889C47.4375 8.1963 48.1875 8 48.9375 8Z" fill="#3D4146"/>
</svg>
