<svg width="50" height="50" fill="none" xmlns="http://www.w3.org/2000/svg">
  <path fill-rule="evenodd" clip-rule="evenodd" d="M8.0909 32.2102c-2.96572-4.7602-2.84135-11.0351.78899-15.7463C13.5814 10.3627 22.3826 9.19443 28.538 13.8546c1.1587.8772 2.1411 1.8985 2.9411 3.0191 3.5513-.7359 7.4187.4356 9.9697 3.334 2.8722 3.2631 3.2884 7.8168 1.4042 11.4446l-.1566 5.5794-5.5988-.6031c-2.7146.9337-5.533.1125-7.9477-1.1665-3.631 3.0886-8.5935 4.0929-13.0981 2.7752L8.77615 39.5l-.68525-7.2898zm21.9117 2.4629c2.242 1.1259 4.6303 1.6927 6.8393.8883l.1209-.044 4.6672.5027.1306-4.6516.0604-.1128c1.7465-3.2603 1.3919-7.3853-1.2011-10.3313-2.1826-2.4797-5.4422-3.5458-8.496-3.0603 2.7954 4.7255 2.6086 10.8532-.9534 15.4756-.3655.4745-.7559.919-1.1679 1.3334zM9.76076 38.2222l-.59855-6.3675-.13542-.2174c-2.73412-4.3885-2.6173-10.1713.72725-14.5116C14.0868 11.503 22.1977 10.4264 27.8703 14.721c5.6727 4.2946 6.7588 12.3342 2.4261 17.9569-3.3446 4.3403-8.9424 5.9736-13.9332 4.5137l-.2472-.0724-6.35524 1.103z" fill="#474C55"/>
</svg>
