<?xml version="1.0" encoding="UTF-8" standalone="no"?>
<svg width="31px" height="30px" viewBox="0 0 31 30" version="1.1" xmlns="http://www.w3.org/2000/svg" xmlns:xlink="http://www.w3.org/1999/xlink" xmlns:sketch="http://www.bohemiancoding.com/sketch/ns">
    <!-- Generator: Sketch 3.4 (15575) - http://www.bohemiancoding.com/sketch -->
    <title>close</title>
    <desc>Created with Sketch.</desc>
    <defs></defs>
    <g id="White-Label" stroke="none" stroke-width="1" fill="none" fill-rule="evenodd" sketch:type="MSPage">
        <path d="M26.9583158,0.521870502 L0.521870502,26.9583158 C-0.173956834,27.6541431 -0.173956834,28.7823022 0.521870502,29.4781295 C1.21769784,30.1739568 2.34585685,30.1739568 3.04168419,29.4781295 L29.4781295,3.04168419 C30.1739568,2.34585685 30.1739568,1.21769784 29.4781295,0.521870502 C28.7823022,-0.173956834 27.6541431,-0.173956834 26.9583158,0.521870502 L26.9583158,0.521870502 Z M27.3758122,29.4781295 C28.0716395,30.1739568 29.1997986,30.1739568 29.8956259,29.4781295 C30.5914532,28.7823022 30.5914532,27.6541431 29.8956259,26.9583158 L3.45918059,0.521870502 C2.76335325,-0.173956834 1.63519424,-0.173956834 0.939366903,0.521870502 C0.243539568,1.21769784 0.243539568,2.34585685 0.939366903,3.04168419 L27.3758122,29.4781295 Z" id="close" fill="#FFF" sketch:type="MSShapeGroup"></path>
    </g>
</svg>