<svg width="450" height="450" viewBox="0 0 450 450" fill="none" xmlns="http://www.w3.org/2000/svg">
<circle cx="224.5" cy="225.5" r="172" stroke="#5A5A5A" stroke-width="7"/>
<path d="M277.229 222L278.775 220.035C277.784 219.256 276.368 219.336 275.472 220.222L277.229 222ZM257.5 241.5L255.743 239.722C254.765 240.689 254.751 242.264 255.712 243.247L257.5 241.5ZM279 263.5L281.482 263.204C281.417 262.657 281.173 262.147 280.788 261.753L279 263.5ZM305 285L304.947 287.499C304.985 287.5 305.023 287.5 305.062 287.499L305 285ZM364 283.539L364.062 286.038C364.762 286.021 365.423 285.71 365.884 285.182C366.345 284.654 366.562 283.956 366.484 283.26L364 283.539ZM359.906 247.094L362.39 246.815C362.327 246.253 362.074 245.728 361.674 245.327L359.906 247.094ZM335.268 222.432L337.037 220.666C336.136 219.763 334.699 219.684 333.704 220.482L335.268 222.432ZM281.5 284.5L279.018 284.796C279.165 286.033 280.201 286.973 281.447 286.999L281.5 284.5ZM259.257 243.278L278.987 223.778L275.472 220.222L255.743 239.722L259.257 243.278ZM280.788 261.753L259.288 239.753L255.712 243.247L277.212 265.247L280.788 261.753ZM305.062 287.499L364.062 286.038L363.938 281.04L304.938 282.501L305.062 287.499ZM366.484 283.26L362.39 246.815L357.421 247.373L361.515 283.818L366.484 283.26ZM361.674 245.327L337.037 220.666L333.5 224.199L358.137 248.861L361.674 245.327ZM275.683 223.965C294.719 238.941 319.195 238.527 336.833 224.383L333.704 220.482C317.912 233.147 296.014 233.598 278.775 220.035L275.683 223.965ZM305.053 282.501L281.553 282.001L281.447 286.999L304.947 287.499L305.053 282.501ZM283.982 284.204L281.482 263.204L276.518 263.796L279.018 284.796L283.982 284.204Z" fill="#F0652E"/>
<path d="M337.5 185.5C337.5 204.383 322.469 219.5 305.5 219.5C289.297 219.5 273.5 204.346 273.5 185.5C273.5 166.588 287.958 151.5 305.5 151.5C323.042 151.5 337.5 166.588 337.5 185.5Z" stroke="#F0652E" stroke-width="5"/>
<path d="M172.771 222L171.225 220.035C172.225 219.248 173.657 219.338 174.551 220.245L172.771 222ZM192 241.5L193.78 239.745C194.729 240.707 194.741 242.249 193.808 243.226L192 241.5ZM171 263.5L168.525 263.146C168.599 262.631 168.832 262.151 169.192 261.774L171 263.5ZM145 285L145.055 287.499C145.016 287.5 144.977 287.5 144.938 287.499L145 285ZM86.0003 283.539L85.9384 286.038C85.2378 286.021 84.5766 285.71 84.116 285.182C83.6554 284.654 83.4377 283.956 83.5159 283.26L86.0003 283.539ZM90.0944 247.094L87.61 246.815C87.6732 246.253 87.9256 245.728 88.3257 245.327L90.0944 247.094ZM114.732 222.432L112.963 220.666C113.864 219.763 115.301 219.684 116.296 220.482L114.732 222.432ZM168 284.5L170.475 284.854C170.302 286.065 169.278 286.973 168.054 286.999L168 284.5ZM190.22 243.255L170.991 223.755L174.551 220.245L193.78 239.745L190.22 243.255ZM169.192 261.774L190.192 239.774L193.808 243.226L172.808 265.226L169.192 261.774ZM144.938 287.499L85.9384 286.038L86.0622 281.04L145.062 282.501L144.938 287.499ZM83.5159 283.26L87.61 246.815L92.5788 247.373L88.4847 283.818L83.5159 283.26ZM88.3257 245.327L112.963 220.666L116.5 224.199L91.863 248.861L88.3257 245.327ZM174.317 223.965C155.281 238.941 130.805 238.527 113.167 224.383L116.296 220.482C132.088 233.147 153.986 233.598 171.225 220.035L174.317 223.965ZM144.946 282.501L167.946 282.001L168.054 286.999L145.055 287.499L144.946 282.501ZM165.525 284.146L168.525 263.146L173.475 263.854L170.475 284.854L165.525 284.146Z" fill="#F0652E"/>
<path d="M112.5 185.5C112.5 204.383 127.531 219.5 144.5 219.5C160.703 219.5 176.5 204.346 176.5 185.5C176.5 166.588 162.042 151.5 144.5 151.5C126.958 151.5 112.5 166.588 112.5 185.5Z" stroke="#F0652E" stroke-width="5"/>
<path d="M256.5 201.5C256.5 220.383 241.469 235.5 224.5 235.5C208.297 235.5 192.5 220.346 192.5 201.5C192.5 182.588 206.958 167.5 224.5 167.5C242.042 167.5 256.5 182.588 256.5 201.5Z" stroke="#F0652E" stroke-width="5"/>
<path d="M196.23 238L197.775 236.035C196.781 235.253 195.359 235.337 194.463 236.231L196.23 238ZM171.094 263.094L169.328 261.325C168.926 261.726 168.673 262.251 168.61 262.815L171.094 263.094ZM167 299.539L164.516 299.26C164.437 299.956 164.655 300.653 165.115 301.181C165.575 301.709 166.236 302.02 166.936 302.038L167 299.539ZM224 301L223.936 303.499C223.978 303.5 224.02 303.5 224.062 303.499L224 301ZM283 299.539L283.062 302.038C283.763 302.021 284.424 301.71 284.884 301.182C285.345 300.654 285.563 299.956 285.484 299.26L283 299.539ZM278.906 263.094L281.39 262.815C281.327 262.253 281.075 261.728 280.675 261.327L278.906 263.094ZM254.269 238.432L256.037 236.666C255.136 235.763 253.7 235.684 252.705 236.482L254.269 238.432ZM172.86 264.864L197.996 239.769L194.463 236.231L169.328 261.325L172.86 264.864ZM169.484 299.818L173.578 263.373L168.61 262.815L164.516 299.26L169.484 299.818ZM224.064 298.501L167.064 297.04L166.936 302.038L223.936 303.499L224.064 298.501ZM224.062 303.499L283.062 302.038L282.938 297.04L223.938 298.501L224.062 303.499ZM285.484 299.26L281.39 262.815L276.422 263.373L280.516 299.818L285.484 299.26ZM280.675 261.327L256.037 236.666L252.5 240.199L277.137 264.861L280.675 261.327ZM194.684 239.965C213.719 254.941 238.196 254.527 255.833 240.383L252.705 236.482C236.913 249.147 215.014 249.598 197.775 236.035L194.684 239.965Z" fill="#F0652E"/>
</svg>
