<svg width="325" height="325" viewBox="0 0 325 325" fill="none" xmlns="http://www.w3.org/2000/svg">
<circle cx="162.5" cy="162.5" r="120" stroke="#5A5A5A" stroke-width="7"/>
<path d="M134.23 165L135.775 163.035C134.781 162.253 133.359 162.337 132.463 163.231L134.23 165ZM109.094 190.094L107.328 188.325C106.926 188.726 106.673 189.251 106.61 189.815L109.094 190.094ZM105 226.539L102.516 226.26C102.437 226.956 102.655 227.653 103.115 228.181C103.575 228.709 104.236 229.02 104.936 229.038L105 226.539ZM162 228L161.936 230.499C161.978 230.5 162.02 230.5 162.062 230.499L162 228ZM221 226.539L221.062 229.038C221.763 229.021 222.424 228.71 222.884 228.182C223.345 227.654 223.563 226.956 223.484 226.26L221 226.539ZM216.906 190.094L219.39 189.815C219.327 189.253 219.075 188.728 218.675 188.327L216.906 190.094ZM192.269 165.432L194.037 163.666C193.136 162.763 191.7 162.684 190.705 163.482L192.269 165.432ZM110.86 191.864L135.996 166.769L132.463 163.231L107.328 188.325L110.86 191.864ZM107.484 226.818L111.578 190.373L106.61 189.815L102.516 226.26L107.484 226.818ZM162.064 225.501L105.064 224.04L104.936 229.038L161.936 230.499L162.064 225.501ZM162.062 230.499L221.062 229.038L220.938 224.04L161.938 225.501L162.062 230.499ZM223.484 226.26L219.39 189.815L214.422 190.373L218.516 226.818L223.484 226.26ZM218.675 188.327L194.037 163.666L190.5 167.199L215.137 191.861L218.675 188.327ZM132.684 166.965C151.719 181.941 176.196 181.527 193.833 167.383L190.705 163.482C174.913 176.147 153.014 176.598 135.775 163.035L132.684 166.965Z" fill="#F0652E"/>
<path d="M194.5 128.5C194.5 147.383 179.469 162.5 162.5 162.5C146.297 162.5 130.5 147.346 130.5 128.5C130.5 109.588 144.958 94.5 162.5 94.5C180.042 94.5 194.5 109.588 194.5 128.5Z" stroke="#F0652E" stroke-width="5"/>
</svg>
