<svg width="450" height="450" viewBox="0 0 450 450" fill="none" xmlns="http://www.w3.org/2000/svg">
<circle cx="224.5" cy="225.5" r="172" stroke="#5A5A5A" stroke-width="7"/>
<path d="M126.418 273L127.961 271.033C126.967 270.254 125.55 270.338 124.655 271.228L126.418 273ZM108 291.323L106.237 289.551C105.834 289.951 105.579 290.478 105.516 291.043L108 291.323ZM105 317.933L102.516 317.653C102.437 318.349 102.655 319.047 103.115 319.575C103.575 320.103 104.236 320.414 104.936 320.432L105 317.933ZM146.767 319L146.703 321.499C146.745 321.5 146.787 321.5 146.829 321.499L146.767 319ZM190 317.933L190.062 320.432C190.763 320.415 191.424 320.104 191.885 319.576C192.345 319.047 192.563 318.35 192.484 317.653L190 317.933ZM187 291.323L189.484 291.043C189.421 290.479 189.167 289.954 188.766 289.553L187 291.323ZM168.947 273.316L170.712 271.546C169.812 270.647 168.38 270.569 167.386 271.363L168.947 273.316ZM109.763 293.095L128.181 274.772L124.655 271.228L106.237 289.551L109.763 293.095ZM107.484 318.213L110.484 291.603L105.516 291.043L102.516 317.653L107.484 318.213ZM146.831 316.501L105.064 315.434L104.936 320.432L146.703 321.499L146.831 316.501ZM146.829 321.499L190.062 320.432L189.938 315.434L146.706 316.501L146.829 321.499ZM192.484 317.653L189.484 291.043L184.516 291.603L187.516 318.213L192.484 317.653ZM188.766 289.553L170.712 271.546L167.181 275.086L185.235 293.093L188.766 289.553ZM124.876 274.967C139.063 286.089 157.339 285.792 170.508 275.269L167.386 271.363C156.06 280.414 140.354 280.748 127.961 271.033L124.876 274.967Z" fill="#F0652E"/>
<path d="M170.5 246C170.5 259.639 159.654 270.5 147.5 270.5C135.903 270.5 124.5 259.601 124.5 246C124.5 232.332 134.93 221.5 147.5 221.5C160.07 221.5 170.5 232.332 170.5 246Z" stroke="#F0652E" stroke-width="5"/>
<path d="M203.418 136L204.961 134.033C203.967 133.254 202.55 133.338 201.655 134.228L203.418 136ZM185 154.323L183.237 152.551C182.834 152.951 182.579 153.478 182.516 154.043L185 154.323ZM182 180.933L179.516 180.653C179.437 181.349 179.655 182.047 180.115 182.575C180.575 183.103 181.236 183.414 181.936 183.432L182 180.933ZM223.767 182L223.703 184.499C223.745 184.5 223.787 184.5 223.829 184.499L223.767 182ZM267 180.933L267.062 183.432C267.763 183.415 268.424 183.104 268.885 182.576C269.345 182.047 269.563 181.35 269.484 180.653L267 180.933ZM264 154.323L266.484 154.043C266.421 153.479 266.167 152.954 265.766 152.553L264 154.323ZM245.947 136.316L247.712 134.546C246.812 133.647 245.38 133.569 244.386 134.363L245.947 136.316ZM186.763 156.095L205.181 137.772L201.655 134.228L183.237 152.551L186.763 156.095ZM184.484 181.213L187.484 154.603L182.516 154.043L179.516 180.653L184.484 181.213ZM223.831 179.501L182.064 178.434L181.936 183.432L223.703 184.499L223.831 179.501ZM223.829 184.499L267.062 183.432L266.938 178.434L223.706 179.501L223.829 184.499ZM269.484 180.653L266.484 154.043L261.516 154.603L264.516 181.213L269.484 180.653ZM265.766 152.553L247.712 134.546L244.181 138.086L262.235 156.093L265.766 152.553ZM201.876 137.967C216.063 149.089 234.339 148.792 247.508 138.269L244.386 134.363C233.06 143.414 217.354 143.748 204.961 134.033L201.876 137.967Z" fill="#F0652E"/>
<path d="M247.5 109C247.5 122.639 236.654 133.5 224.5 133.5C212.903 133.5 201.5 122.601 201.5 109C201.5 95.3325 211.93 84.5 224.5 84.5C237.07 84.5 247.5 95.3325 247.5 109Z" stroke="#F0652E" stroke-width="5"/>
<path d="M302 210V201H225M148 210V201H225M225 201V192" stroke="#5A5A5A" stroke-width="3"/>
<path d="M280.418 273L281.961 271.033C280.967 270.254 279.55 270.338 278.655 271.228L280.418 273ZM262 291.323L260.237 289.551C259.834 289.951 259.579 290.478 259.516 291.043L262 291.323ZM259 317.933L256.516 317.653C256.437 318.35 256.655 319.048 257.116 319.577C257.577 320.105 258.239 320.416 258.94 320.432L259 317.933ZM303.767 319L303.708 321.499C303.75 321.5 303.792 321.5 303.834 321.499L303.767 319ZM344 317.933L344.066 320.432C344.766 320.414 345.426 320.102 345.886 319.574C346.346 319.046 346.563 318.349 346.484 317.653L344 317.933ZM341 291.323L343.484 291.043C343.421 290.479 343.167 289.954 342.766 289.553L341 291.323ZM322.947 273.316L324.712 271.546C323.812 270.647 322.38 270.569 321.386 271.363L322.947 273.316ZM263.763 293.095L282.181 274.772L278.655 271.228L260.237 289.551L263.763 293.095ZM261.484 318.213L264.484 291.603L259.516 291.043L256.516 317.653L261.484 318.213ZM303.827 316.501L259.06 315.434L258.94 320.432L303.708 321.499L303.827 316.501ZM303.834 321.499L344.066 320.432L343.934 315.434L303.701 316.501L303.834 321.499ZM346.484 317.653L343.484 291.043L338.516 291.603L341.516 318.213L346.484 317.653ZM342.766 289.553L324.712 271.546L321.181 275.086L339.235 293.093L342.766 289.553ZM278.876 274.967C293.063 286.089 311.339 285.792 324.508 275.269L321.386 271.363C310.06 280.414 294.354 280.748 281.961 271.033L278.876 274.967Z" fill="#F0652E"/>
<path d="M324.5 246C324.5 259.639 313.654 270.5 301.5 270.5C289.903 270.5 278.5 259.601 278.5 246C278.5 232.332 288.93 221.5 301.5 221.5C314.07 221.5 324.5 232.332 324.5 246Z" stroke="#F0652E" stroke-width="5"/>
</svg>
