<svg width="50" height="50" fill="none" xmlns="http://www.w3.org/2000/svg">
  <path d="M5 30.5v2.2143C5 33.9766 6.02335 35 7.28571 35H42.7143C43.9767 35 45 33.9766 45 32.7143V30.5m-40 0V13.2857C5 12.0233 6.02335 11 7.28571 11H42.7143C43.9767 11 45 12.0233 45 13.2857V30.5m-40 0h40M29 35l2.5601 2.9013c.3956.7608-.1564 1.6701-1.014 1.6701H19.4539c-.8576 0-1.4096-.9093-1.014-1.6701L21 35" stroke="#474C55"/>
  <path d="M8.42875 13.8571c0 .3156-.25584.5715-.57143.5715s-.57143-.2559-.57143-.5715.25584-.5714.57143-.5714.57143.2558.57143.5714zM10.7145 13.8571c0 .3156-.2559.5715-.5715.5715-.31556 0-.5714-.2559-.5714-.5715s.25584-.5714.5714-.5714c.3156 0 .5715.2558.5715.5714zM13.0002 13.8571c0 .3156-.2559.5715-.5715.5715-.3155 0-.5714-.2559-.5714-.5715s.2559-.5714.5714-.5714c.3156 0 .5715.2558.5715.5714z" fill="#474C55"/>
</svg>
