<svg width="200" height="200" viewBox="0 0 200 200" fill="none" xmlns="http://www.w3.org/2000/svg">
<rect width="200" height="200" fill="white"/>
<path d="M46.5 70.7898H75.8634C80.5579 70.7898 84.3634 66.9842 84.3634 62.2898V33.5H152.738C153.566 33.5 154.238 34.1716 154.238 35V164.98C154.238 165.808 153.566 166.48 152.738 166.48H48C47.1716 166.48 46.5 165.808 46.5 164.98V70.7898ZM51.5418 63.7898L77.3634 38.3594V62.2898C77.3634 63.1182 76.6919 63.7898 75.8634 63.7898H51.5418Z" fill="white" stroke="#3D4146" stroke-width="7"/>
<path d="M75.2895 67.716H58.0842C53.6093 67.716 51.3878 62.2884 54.5784 59.1509L71.7838 42.2323C74.9455 39.1233 80.2895 41.3632 80.2895 45.7975V62.716C80.2895 65.4775 78.0509 67.716 75.2895 67.716Z" fill="#3D4146"/>
<rect x="43" y="100" width="95" height="46" fill="#3D4146"/>
<path d="M58.838 138C58.418 138 58.068 137.874 57.788 137.622C57.508 137.342 57.368 136.95 57.368 136.446V110.7C57.368 110.28 57.508 109.93 57.788 109.65C58.068 109.37 58.404 109.23 58.796 109.23H65.558C67.798 109.23 69.576 109.93 70.892 111.33C72.208 112.73 72.866 114.578 72.866 116.874V118.26C72.866 120.556 72.166 122.404 70.766 123.804C69.366 125.204 67.49 125.904 65.138 125.904H60.266V136.446C60.266 136.95 60.126 137.342 59.846 137.622C59.566 137.874 59.23 138 58.838 138ZM65.138 123.09C66.706 123.09 67.91 122.684 68.75 121.872C69.618 121.032 70.052 119.856 70.052 118.344V116.79C70.052 115.278 69.66 114.116 68.876 113.304C68.092 112.464 66.986 112.044 65.558 112.044H60.266V123.09H65.138ZM83.8418 138C83.4498 138 83.1138 137.86 82.8338 137.58C82.5538 137.3 82.4138 136.95 82.4138 136.53V110.7C82.4138 110.28 82.5538 109.93 82.8338 109.65C83.1418 109.37 83.4918 109.23 83.8838 109.23H91.7798C94.2998 109.23 96.3298 109.986 97.8698 111.498C99.4098 113.01 100.488 114.858 101.104 117.042C101.748 119.198 102.07 121.382 102.07 123.594C102.07 125.806 101.748 128.004 101.104 130.188C100.488 132.372 99.4098 134.22 97.8698 135.732C96.3298 137.244 94.2998 138 91.7798 138H83.8418ZM91.7798 135.186C94.2718 135.186 96.0778 134.066 97.1978 131.826C98.3178 129.558 98.8778 126.814 98.8778 123.594C98.8778 120.402 98.3038 117.686 97.1558 115.446C96.0358 113.178 94.2158 112.044 91.6958 112.044H85.3118V135.186H91.7798ZM114.959 138C114.567 138 114.217 137.86 113.909 137.58C113.629 137.3 113.489 136.95 113.489 136.53V110.7C113.489 110.28 113.629 109.93 113.909 109.65C114.189 109.37 114.525 109.23 114.917 109.23H125.837C126.285 109.23 126.649 109.356 126.929 109.608C127.209 109.86 127.349 110.196 127.349 110.616C127.349 111.064 127.209 111.414 126.929 111.666C126.649 111.918 126.285 112.044 125.837 112.044H116.387V121.452H124.241C124.689 121.452 125.053 121.578 125.333 121.83C125.613 122.082 125.753 122.418 125.753 122.838C125.753 123.286 125.613 123.636 125.333 123.888C125.053 124.14 124.689 124.266 124.241 124.266H116.387V136.53C116.387 136.95 116.247 137.3 115.967 137.58C115.687 137.86 115.351 138 114.959 138Z" fill="white"/>
</svg>
