<svg width="50" height="50" fill="none" xmlns="http://www.w3.org/2000/svg">
  <path d="M8.85029 21.4439c0-1.7721 1.43651-3.2086 3.20861-3.2086 1.772 0 3.2085 1.4365 3.2085 3.2086v2.5668c0 1.7721-1.4365 3.2086-3.2085 3.2086-1.7721 0-3.20861-1.4365-3.20861-3.2086v-2.5668z" stroke="#f26521"/>
  <path d="M5.91464 29.2551l3.48149-1.0445a1.0323 1.0323 0 00.29095-.1397c.45432-.314.89432-.8516 1.44662-.8516h1.8503c.5523 0 .9923.5376 1.4466.8516.0874.0604.1852.108.291.1397l3.4815 1.0445c.5428.1628.9146.6625.9146 1.2293v1.8686H5v-1.8686c0-.5668.37177-1.0665.91464-1.2293zM34.733 21.4444c0-1.7724 1.4367-3.2091 3.2091-3.2091 1.7723 0 3.2091 1.4367 3.2091 3.2091v2.5673c0 1.7723-1.4368 3.209-3.2091 3.209-1.7724 0-3.2091-1.4367-3.2091-3.209v-2.5673zM31.7969 29.2569l3.482-1.0447c.1058-.0317.2036-.0793.291-.1397.4544-.3141.8945-.8518 1.4469-.8518h1.8506c.5523 0 .9924.5377 1.4468.8518.0875.0604.1852.108.291.1397l3.4821 1.0447c.543.1628.9148.6626.9148 1.2295v1.8689h-14.12v-1.8689c0-.5669.3718-1.0667.9148-1.2295z" stroke="#f26521"/>
  <path d="M38.166 17.5077l-.8603.5099c-.4595-.7754-.9904-1.5038-1.5835-2.1761l.7498-.6616c.6344.719 1.2023 1.4982 1.694 2.3278zM35.1138 13.8217l-.6616.7498c-.6723-.5932-1.4007-1.124-2.1761-1.5835l.5099-.8603c.8296.4917 1.6087 1.0596 2.3278 1.694zM31.0751 11.2543l-.3976.9176a14.1731 14.1731 0 00-2.5575-.8305l.2173-.9761c.9488.2112 1.8645.5106 2.7378.889zM26.4396 10.0669l-.093.9957A14.48054 14.48054 0 0024.9995 11c-.4546 0-.9039.0212-1.3471.0626l-.093-.9957c.4741-.0443.9544-.0669 1.4401-.0669.4856 0 .966.0226 1.4401.0669zM21.6617 10.3653l.2173.9761c-.8864.1973-1.7417.4769-2.5576.8305l-.3976-.9176a15.18434 15.18434 0 012.7379-.889zM17.213 12.1277l.5099.8603c-.7754.4595-1.5038.9903-2.1761 1.5835l-.6616-.7498c.719-.6344 1.4982-1.2023 2.3278-1.694zM13.527 15.1799l.7498.6616c-.5932.6723-1.124 1.4007-1.5835 2.1761l-.8603-.5099c.4917-.8296 1.0596-1.6088 1.694-2.3278zM11.833 33.0807l.8603-.5099c.4595.7754.9903 1.5038 1.5835 2.1761l-.7498.6616c-.6344-.7191-1.2023-1.4982-1.694-2.3278zM14.8852 36.7667l.6616-.7498c.6723.5931 1.4007 1.124 2.1761 1.5835l-.5099.8603c-.8296-.4917-1.6088-1.0596-2.3278-1.694zM18.9238 39.3341l.3976-.9176c.8159.3536 1.6712.6332 2.5576.8305l-.2173.9761a15.18178 15.18178 0 01-2.7379-.889zM23.5594 40.5215l.093-.9957c.4432.0414.8925.0626 1.3471.0626s.9039-.0212 1.3471-.0626l.093.9957c-.4741.0442-.9545.0669-1.4401.0669-.4857 0-.966-.0227-1.4401-.0669zM28.3373 40.2231l-.2173-.9761a14.1731 14.1731 0 002.5575-.8305l.3976.9176c-.8733.3784-1.789.6778-2.7378.889zM32.786 38.4607l-.5099-.8603c.7754-.4595 1.5038-.9904 2.1761-1.5835l.6616.7498c-.7191.6344-1.4982 1.2023-2.3278 1.694zM36.472 35.4085l-.7498-.6616c.5931-.6723 1.124-1.4007 1.5835-2.1761l.8603.5099c-.4917.8296-1.0596 1.6087-1.694 2.3278z" fill="#f26521"/>
</svg>
