<svg width="53" height="32" viewBox="0 0 53 32" fill="none" xmlns="http://www.w3.org/2000/svg">
<g clip-path="url(#clip0)">
<path d="M53 26C53 29.3137 50.3137 32 47 32L6 32C2.68629 32 -3.57985e-06 29.3137 -3.29016e-06 26L-7.549e-07 -3L53 -3L53 26Z" fill="#605A55"/>
<path fill-rule="evenodd" clip-rule="evenodd" d="M26.1362 13.6498L26.1286 13.6425L26.8053 13L32.8237 18.7146L32.147 19.3572L26.8129 14.2924L21.6767 19.1694L21 18.5268L26.1362 13.6498Z" fill="white"/>
<path d="M26.1286 13.6425L25.0957 12.5548L23.9501 13.6426L25.0957 14.7303L26.1286 13.6425ZM26.1362 13.6498L27.1691 14.7376L28.3147 13.6498L27.1691 12.5621L26.1362 13.6498ZM26.8053 13L27.8381 11.9122L26.8053 10.9315L25.7724 11.9122L26.8053 13ZM32.8237 18.7146L33.8565 19.8024L35.0021 18.7146L33.8565 17.6269L32.8237 18.7146ZM32.147 19.3572L31.1141 20.4449L32.147 21.4257L33.1798 20.4449L32.147 19.3572ZM26.8129 14.2924L27.8458 13.2046L26.8129 12.2239L25.7801 13.2046L26.8129 14.2924ZM21.6767 19.1694L20.6439 20.2571L21.6767 21.2379L22.7096 20.2571L21.6767 19.1694ZM21 18.5268L19.9671 17.4391L18.8216 18.5268L19.9671 19.6146L21 18.5268ZM25.0957 14.7303L25.1034 14.7376L27.1691 12.5621L27.1614 12.5548L25.0957 14.7303ZM25.7724 11.9122L25.0957 12.5548L27.1614 14.7303L27.8381 14.0877L25.7724 11.9122ZM33.8565 17.6269L27.8381 11.9122L25.7724 14.0877L31.7908 19.8024L33.8565 17.6269ZM33.1798 20.4449L33.8565 19.8024L31.7908 17.6269L31.1141 18.2694L33.1798 20.4449ZM25.7801 15.3801L31.1141 20.4449L33.1798 18.2694L27.8458 13.2046L25.7801 15.3801ZM25.7801 13.2046L20.6439 18.0816L22.7096 20.2571L27.8458 15.3801L25.7801 13.2046ZM22.7096 18.0816L22.0329 17.4391L19.9671 19.6146L20.6439 20.2571L22.7096 18.0816ZM22.0329 19.6146L27.1691 14.7376L25.1034 12.5621L19.9671 17.4391L22.0329 19.6146Z" fill="white"/>
</g>
<defs>
<clipPath id="clip0">
<rect width="53" height="32" fill="white" transform="translate(53 32) rotate(-180)"/>
</clipPath>
</defs>
</svg>
