<svg width="53" height="32" viewBox="0 0 53 32" fill="none" xmlns="http://www.w3.org/2000/svg">
<g clip-path="url(#clip0)">
<path d="M0 6C0 2.68629 2.68629 0 6 0L47 0C50.3137 0 53 2.68629 53 6L53 35L0 35L0 6Z" fill="#605A55"/>
<path fill-rule="evenodd" clip-rule="evenodd" d="M26.8638 18.3502L26.8714 18.3575L26.1947 19L20.1763 13.2854L20.853 12.6428L26.1871 17.7076L31.3233 12.8306L32 13.4732L26.8638 18.3502Z" fill="white"/>
<path d="M26.8714 18.3575L27.9043 19.4452L29.0499 18.3574L27.9043 17.2697L26.8714 18.3575ZM26.8638 18.3502L25.8309 17.2624L24.6853 18.3502L25.8309 19.4379L26.8638 18.3502ZM26.1947 19L25.1619 20.0878L26.1947 21.0685L27.2276 20.0878L26.1947 19ZM20.1763 13.2854L19.1435 12.1976L17.9979 13.2854L19.1435 14.3731L20.1763 13.2854ZM20.853 12.6428L21.8859 11.5551L20.853 10.5743L19.8202 11.5551L20.853 12.6428ZM26.1871 17.7076L25.1542 18.7954L26.1871 19.7761L27.2199 18.7954L26.1871 17.7076ZM31.3233 12.8306L32.3561 11.7429L31.3233 10.7621L30.2904 11.7429L31.3233 12.8306ZM32 13.4732L33.0329 14.5609L34.1784 13.4732L33.0329 12.3854L32 13.4732ZM27.9043 17.2697L27.8966 17.2624L25.8309 19.4379L25.8386 19.4452L27.9043 17.2697ZM27.2276 20.0878L27.9043 19.4452L25.8386 17.2697L25.1619 17.9123L27.2276 20.0878ZM19.1435 14.3731L25.1619 20.0878L27.2276 17.9123L21.2092 12.1976L19.1435 14.3731ZM19.8202 11.5551L19.1435 12.1976L21.2092 14.3731L21.8859 13.7306L19.8202 11.5551ZM27.2199 16.6199L21.8859 11.5551L19.8202 13.7306L25.1542 18.7954L27.2199 16.6199ZM27.2199 18.7954L32.3561 13.9184L30.2904 11.7429L25.1542 16.6199L27.2199 18.7954ZM30.2904 13.9184L30.9671 14.5609L33.0329 12.3854L32.3561 11.7429L30.2904 13.9184ZM30.9671 12.3854L25.8309 17.2624L27.8966 19.4379L33.0329 14.5609L30.9671 12.3854Z" fill="white"/>
</g>
<defs>
<clipPath id="clip0">
<rect width="53" height="32" fill="white"/>
</clipPath>
</defs>
</svg>
