<svg width="25" height="25" viewBox="0 0 25 25" fill="none" xmlns="http://www.w3.org/2000/svg">
<path fill-rule="evenodd" clip-rule="evenodd" d="M13.3529 11.9387L20.5844 4.70711L19.8773 4L12.6458 11.2315L5.41421 4L4.70711 4.70711L11.9387 11.9387L4 19.8773L4.70711 20.5844L12.6458 12.6458L20.5844 20.5844L21.2915 19.8773L13.3529 11.9387Z" fill="#474C55"/>
<path d="M20.5844 4.70711L20.938 5.06066L21.2915 4.70711L20.938 4.35355L20.5844 4.70711ZM13.3529 11.9387L12.9993 11.5851L12.6458 11.9387L12.9993 12.2922L13.3529 11.9387ZM19.8773 4L20.2309 3.64645L19.8773 3.29289L19.5237 3.64645L19.8773 4ZM12.6458 11.2315L12.2922 11.5851L12.6458 11.9387L12.9993 11.5851L12.6458 11.2315ZM5.41421 4L5.76777 3.64645L5.41421 3.2929L5.06066 3.64645L5.41421 4ZM4.70711 4.70711L4.35355 4.35356L4 4.70711L4.35355 5.06066L4.70711 4.70711ZM11.9387 11.9387L12.2922 12.2922L12.6458 11.9387L12.2922 11.5851L11.9387 11.9387ZM4 19.8773L3.64645 19.5238L3.29289 19.8773L3.64645 20.2309L4 19.8773ZM4.70711 20.5844L4.35355 20.938L4.70711 21.2915L5.06066 20.938L4.70711 20.5844ZM12.6458 12.6458L12.9993 12.2922L12.6458 11.9387L12.2922 12.2922L12.6458 12.6458ZM20.5844 20.5844L20.2309 20.938L20.5844 21.2915L20.938 20.938L20.5844 20.5844ZM21.2915 19.8773L21.6451 20.2309L21.9986 19.8773L21.6451 19.5238L21.2915 19.8773ZM20.2309 4.35355L12.9993 11.5851L13.7064 12.2922L20.938 5.06066L20.2309 4.35355ZM19.5237 4.35355L20.2309 5.06066L20.938 4.35355L20.2309 3.64645L19.5237 4.35355ZM12.9993 11.5851L20.2309 4.35355L19.5237 3.64645L12.2922 10.878L12.9993 11.5851ZM5.06066 4.35356L12.2922 11.5851L12.9993 10.878L5.76777 3.64645L5.06066 4.35356ZM5.06066 5.06066L5.76777 4.35356L5.06066 3.64645L4.35355 4.35356L5.06066 5.06066ZM12.2922 11.5851L5.06066 4.35356L4.35355 5.06066L11.5851 12.2922L12.2922 11.5851ZM4.35355 20.2309L12.2922 12.2922L11.5851 11.5851L3.64645 19.5238L4.35355 20.2309ZM5.06066 20.2309L4.35355 19.5238L3.64645 20.2309L4.35355 20.938L5.06066 20.2309ZM12.2922 12.2922L4.35355 20.2309L5.06066 20.938L12.9993 12.9993L12.2922 12.2922ZM20.938 20.2309L12.9993 12.2922L12.2922 12.9993L20.2309 20.938L20.938 20.2309ZM20.938 19.5238L20.2309 20.2309L20.938 20.938L21.6451 20.2309L20.938 19.5238ZM12.9993 12.2922L20.938 20.2309L21.6451 19.5238L13.7064 11.5851L12.9993 12.2922Z" fill="#474C55"/>
</svg>
