<?xml version="1.0" encoding="UTF-8" standalone="no"?>
<svg width="30px" height="30px" viewBox="0 0 30 30" version="1.1" xmlns="http://www.w3.org/2000/svg" xmlns:xlink="http://www.w3.org/1999/xlink" xmlns:sketch="http://www.bohemiancoding.com/sketch/ns">
    <!-- Generator: Sketch 3.4 (15575) - http://www.bohemiancoding.com/sketch -->
    <title>phone</title>
    <desc>Created with Sketch.</desc>
    <defs></defs>
    <g id="White-Label" stroke="none" stroke-width="1" fill="none" fill-rule="evenodd" sketch:type="MSPage">
        <path d="M30,3.58604355 C30,3.67860277 29.9884303,3.75959088 29.9652905,3.8290103 C29.1091176,10.6552531 26.2398247,16.5037513 21.3573257,21.3746804 C16.4748266,26.2456096 10.6321133,29.1091176 3.8290103,29.9652905 C3.75959088,29.9884303 3.67860277,30 3.58604355,30 C3.47034452,30 3.38935641,29.9884303 3.3430768,29.9652905 C3.20423797,29.895871 3.08854067,29.7801738 2.99598145,29.6181951 L0.0456709373,22.1903545 C-0.0700280926,21.8201176 0.0340994723,21.5540139 0.358056756,21.3920352 L8.54950711,17.29631 C8.78090517,17.1574712 9.02386949,17.1921804 9.27840736,17.4004386 L13.2700039,21.4267448 C16.5789962,19.367302 19.2863129,16.6484156 21.3920352,13.2700039 L17.4004386,9.27840736 C17.1921804,9.02386949 17.1574712,8.78090517 17.29631,8.54950711 L21.3920352,0.358056756 C21.5540139,0.0340994723 21.8201176,-0.0700280926 22.1903545,0.0456709373 L29.6181951,2.99598145 C29.7801738,3.08854067 29.8843013,3.20423797 29.9305809,3.3430768 C29.9768605,3.43563603 30,3.51662413 30,3.58604355 L30,3.58604355 Z" id="phone" fill="#6C7077" sketch:type="MSShapeGroup"></path>
    </g>
</svg>