<?xml version="1.0" encoding="UTF-8" standalone="no"?>
<svg width="30px" height="30px" viewBox="0 0 30 30" version="1.1" xmlns="http://www.w3.org/2000/svg" xmlns:xlink="http://www.w3.org/1999/xlink" xmlns:sketch="http://www.bohemiancoding.com/sketch/ns">
    <!-- Generator: Sketch 3.4 (15575) - http://www.bohemiancoding.com/sketch -->
    <title>region</title>
    <desc>Created with Sketch.</desc>
    <defs>
        <path d="M30,15 C30,23.3116721 23.3116721,30 15,30 C6.75018745,30 0,23.3116721 0,15 C0,6.75018745 6.75018745,0 15,0 C23.3116721,0 30,6.75018745 30,15 L30,15 Z M3.06298425,10.4373907 C4.00024994,10.5629843 6.25156211,10.5629843 6.56273432,11.3746563 C6.87578105,12.1882029 5.5636091,12.999875 5.5636091,14.6869533 C5.5636091,16.4996251 7.93864034,16.4996251 7.93864034,17.8755311 C7.93864034,19.3114221 8.43914021,20.9366408 8.43914021,21.3734066 C8.43914021,21.812047 10.4373907,24.3745314 11.1890777,24.3745314 C11.8751562,24.3745314 11.3127968,21.5608598 11.3765309,20.7491877 C11.3765309,20.3124219 11.6877031,18.8109223 11.8132967,18.4378905 C12.4375156,16.0628593 14.8125469,16.2503124 15.3749063,14.8125469 C17.0619845,10.3117971 11.6877031,10.0006248 10.9378905,9.74943764 C10.251812,9.50012497 9.00149963,9.50012497 8.50099975,9.62384404 C8.06423394,9.81317171 7.12509373,8.99962509 7.12509373,8.37540615 C7.12509373,7.68745314 8.93776556,6.31154711 9.56385904,5.43614096 C10.1262184,4.49887528 10.5629843,4.62446888 11.6258435,3.62534366 C12.1263434,3.18670332 12.9380155,2.93739065 13.2510622,2.37503124 C8.56285929,2.99925019 4.68820295,6.18782804 3.06298425,10.4373907 L3.06298425,10.4373907 Z M15,27.8124219 C17.6243439,27.8124219 20.0631092,27.0607348 22.0632342,25.6867033 C21.4990002,24.6857036 19.4370157,24.4982504 18.3741565,24.623844 C17.123844,24.7494376 15.687953,25.4992502 14.8744064,25.6867033 C14.0008748,25.8741565 13.3129218,26.1872032 12.5012497,26.1872032 C11.8132967,26.2490627 11.7514371,26.7495626 11.0016246,27.1863284 C12.2500625,27.5612347 13.6259685,27.8124219 15,27.8124219 L15,27.8124219 Z M19.0621095,2.87553112 C18.7490627,3.31229693 18.4997501,3.62534366 18.5616096,3.87465634 C18.8746563,7.31254686 21.2496876,4.75006248 21.6864534,5.24868783 C23.3116721,7.06135966 18.6253437,7.68745314 20.2505624,10.8741565 C21.0622344,12.4375156 21.9376406,12.8742814 23.2498125,12.8742814 C24.5619845,12.9380155 25.0624844,15.1874531 25.1243439,16.0628593 C25.2499375,17.000125 25.1243439,19.3751562 24.6875781,20.436141 C24.1870782,21.4371407 24.6875781,22.4362659 25.1243439,22.8111722 C26.8132967,20.6235941 27.8124219,17.9373907 27.8124219,15 C27.8124219,9.37453137 24.1252187,4.62446888 19.0621095,2.87553112 L19.0621095,2.87553112 Z" id="path-1"></path>
    </defs>
    <g id="White-Label" stroke="none" stroke-width="1" fill="none" fill-rule="evenodd" sketch:type="MSPage">
        <g id="region">
            <use fill="#6C7077" fill-rule="evenodd" sketch:type="MSShapeGroup" xlink:href="#path-1"></use>
            <use fill="none" xlink:href="#path-1"></use>
        </g>
    </g>
</svg>