<?xml version="1.0" encoding="UTF-8" standalone="no"?>
<svg width="30px" height="30px" viewBox="0 0 30 30" version="1.1" xmlns="http://www.w3.org/2000/svg" xmlns:xlink="http://www.w3.org/1999/xlink" xmlns:sketch="http://www.bohemiancoding.com/sketch/ns">
    <!-- Generator: Sketch 3.4 (15575) - http://www.bohemiancoding.com/sketch -->
    <title>search</title>
    <desc>Created with Sketch.</desc>
    <defs>
        <path d="M11.25,0 C8.14813264,0 5.49769618,1.09952604 3.29861111,3.29861111 C1.09952604,5.49769618 0,8.14813264 0,11.25 C0,14.3518674 1.09952604,17.0023038 3.29861111,19.2013889 C5.49769618,21.400474 8.14813264,22.5 11.25,22.5 C13.4490851,22.5 15.4513799,21.9213021 17.2569444,20.7638889 L25.7291667,29.2708333 C26.2152802,29.7569469 26.8055521,30 27.5,30 C28.1944479,30 28.7847198,29.7569469 29.2708333,29.2708333 C29.7569469,28.7847198 30,28.1944479 30,27.5 C30,26.8055521 29.7569469,26.2152802 29.2708333,25.7291667 L20.7638889,17.2569444 C21.9213021,15.4513799 22.5,13.4490851 22.5,11.25 C22.5,8.14813264 21.400474,5.49769618 19.2013889,3.29861111 C17.0023038,1.09952604 14.3518674,0 11.25,0 L11.25,0 Z M11.25,18.75 C9.18980451,18.75 7.42477587,18.0150536 5.95486111,16.5451389 C4.48494635,15.0752241 3.75,13.3101955 3.75,11.25 C3.75,9.18980451 4.48494635,7.42477587 5.95486111,5.95486111 C7.42477587,4.48494635 9.18980451,3.75 11.25,3.75 C13.3101955,3.75 15.0752241,4.48494635 16.5451389,5.95486111 C18.0150536,7.42477587 18.75,9.18980451 18.75,11.25 C18.75,13.3101955 18.0150536,15.0752241 16.5451389,16.5451389 C15.0752241,18.0150536 13.3101955,18.75 11.25,18.75 L11.25,18.75 Z" id="path-1"></path>
    </defs>
    <g id="White-Label" stroke="none" stroke-width="1" fill="none" fill-rule="evenodd" sketch:type="MSPage">
        <g id="search">
            <use fill="#6C7077" fill-rule="evenodd" sketch:type="MSShapeGroup" xlink:href="#path-1"></use>
            <use fill="none" xlink:href="#path-1"></use>
        </g>
    </g>
</svg>