<svg width="50" height="50" fill="none" xmlns="http://www.w3.org/2000/svg">
  <path d="M14.4167 32.5919a.5.5 0 00.7666.6423l-.7666-.6423zm6.0117-6.3964l.3832.3211-.3832-.3211zm9.1432 0l-.3832.3211.3832-.3211zm5.2451 7.0387a.5001.5001 0 00.7666-.6423l-.7666.6423zM12.6262 21.5106a.5.5 0 00-.4524.8918l.4524-.8918zM14.8 23.1739l-.2262.4459.2262-.4459zm23.0262-.7715a.5.5 0 10-.4524-.8918l.4524.8918zM14.8 11v-.5h-.4999L14.3 11h.5zm20.4 0h.5v-.5h-.5v.5zm4.3 9.7391v15.8261h1V20.7391h-1zM37.6 38.5H12.4v1h25.2v-1zm-27.1-1.9348V20.7391h-1v15.8261h1zm1.9-17.7609h2.4v-1h-2.4v1zm2.4 0h.3563v-1H14.8v1zm20.0438 0H35.2v-1h-.3562v1zm.3562 0h2.4v-1h-2.4v1zM12.4 38.5c-1.0426 0-1.9-.8594-1.9-1.9348h-1c0 1.614 1.2916 2.9348 2.9 2.9348v-1zm27.1-1.9348c0 1.0754-.8574 1.9348-1.9 1.9348v1c1.6084 0 2.9-1.3208 2.9-2.9348h-1zm1-15.8261c0-1.614-1.2916-2.9348-2.9-2.9348v1c1.0426 0 1.9.8595 1.9 1.9348h1zm-30 0c0-1.0753.8574-1.9348 1.9-1.9348v-1c-1.6084 0-2.9 1.3208-2.9 2.9348h1zm4.6833 12.4951l5.6283-6.7176-.7665-.6422-5.6284 6.7175.7666.6423zm14.0051-6.7176l5.6283 6.7176.7666-.6423-5.6284-6.7175-.7665.6422zm-8.3768 0a5.6298 5.6298 0 01.0917-.1067l-.7505-.6609a6.5588 6.5588 0 00-.1077.1254l.7665.6422zm.0917-.1067c2.1826-2.4789 6.0108-2.4789 8.1934 0l.7505-.6609c-2.5808-2.931-7.1136-2.931-9.6944 0l.7505.6609zm8.1934 0c.0309.035.0614.0706.0917.1067l.7665-.6422a6.5588 6.5588 0 00-.1077-.1254l-.7505.6609zm-16.9229-4.0075l2.4 1.2174.4524-.8918-2.4-1.2174-.4524.8918zm2.4 1.2174l5.728 2.9055.4524-.8918-5.728-2.9055-.4524.8918zm5.728 2.9055l.272.138.4524-.8918-.272-.138-.4524.8918zm9.1244.138l.272-.138-.4524-.8918-.272.138.4524.8918zm.272-.138l5.728-2.9055-.4524-.8918-5.728 2.9055.4524.8918zm5.728-2.9055l2.4-1.2174-.4524-.8918-2.4 1.2174.4524.8918zM15.3 23.1739v-4.8696h-1v4.8696h1zm0-4.8696V11h-1v7.3043h1zM14.8 11.5h20.4v-1H14.8v1zm19.9-.5v7.3043h1V11h-1zm0 7.3043v4.8696h1v-4.8696h-1z" fill="#f26521"/>
</svg>
