<svg width="17" height="17" viewBox="0 0 17 17" fill="none" xmlns="http://www.w3.org/2000/svg">
<path d="M16.499 8.88095C16.499 7.67714 15.8324 6.63333 14.8625 6.1381C14.9799 5.80667 15.0439 5.44857 15.0439 5.07143C15.0439 3.38762 13.7411 2.02533 12.135 2.02533C11.777 2.02533 11.4341 2.08933 11.1172 2.21581C10.6463 1.19714 9.64983 0.5 8.4994 0.5C7.34898 0.5 6.35398 1.19867 5.88086 2.21429C5.56469 2.08857 5.22108 2.02381 4.86301 2.02381C3.25546 2.02381 1.95419 3.38762 1.95419 5.07143C1.95419 5.44781 2.01743 5.8059 2.13475 6.1381C1.16566 6.63333 0.499023 7.67562 0.499023 8.88095C0.499023 10.02 1.0948 11.0128 1.97857 11.537C1.96333 11.6665 1.95419 11.796 1.95419 11.9286C1.95419 13.6124 3.25546 14.9762 4.86301 14.9762C5.22108 14.9762 5.56393 14.9107 5.8801 14.7857C6.35246 15.8021 7.34746 16.5 8.49864 16.5C9.65059 16.5 10.6456 15.8021 11.1172 14.7857C11.4334 14.9099 11.7762 14.9747 12.135 14.9747C13.7426 14.9747 15.0439 13.6109 15.0439 11.927C15.0439 11.7945 15.0347 11.665 15.0187 11.5362C15.901 11.0128 16.499 10.02 16.499 8.88171V8.88095ZM11.4585 6.34076L8.15656 11.2931C8.04609 11.4585 7.86553 11.5476 7.6804 11.5476C7.57145 11.5476 7.46098 11.5171 7.36346 11.4516L7.27584 11.38L5.43593 9.54C5.2127 9.31676 5.2127 8.95486 5.43593 8.73238C5.65916 8.50991 6.02105 8.50838 6.24351 8.73238L7.59202 10.0787L10.5062 5.70533C10.6814 5.44248 11.0364 5.37314 11.2985 5.54762C11.5621 5.72286 11.6337 6.0779 11.4585 6.34V6.34076Z" fill="#1DA1F2"/>
</svg>
